<?xml version="1.0" encoding="UTF-8"?>
<svg id="Layer_2" data-name="Layer 2" xmlns="http://www.w3.org/2000/svg" viewBox="0 0 231.65 214.83">
  <defs>
    <style>
      .cls-1 {
        fill: #fff;
        fill-rule: evenodd;
      }

      .cls-2 {
        fill: #061922;
      }
    </style>
  </defs>
  <g>
    <rect class="cls-2" width="231.65" height="214.83"/>
    <path class="cls-1" d="m51.63,82.69v-1.48c0-6.72,3.59-12.93,9.41-16.29,12.16-7.02,33.22-19.18,45.38-26.2,5.82-3.36,12.99-3.36,18.81,0l25.92,14.96h-48.39c-1.4-.02-25.36-.29-43.01,18.22-2.91,3.06-5.67,6.62-8.12,10.78Zm115.14-19.98l3.84,2.22c2.36,1.36,4.36,3.2,5.89,5.35h-77.78c-2.41-.2-27.74-1.61-44.08,23.12,2.74-6.02,6.14-10.85,9.87-14.74,16.12-16.77,38.1-15.93,38.1-15.93h.05s64.1-.02,64.1-.02Zm13.24,23.93l-89.28.03s-17.43-.11-31.74,14.42l-.08-.11c.33-.54.66-1.07,1-1.59,14.86-22.64,38.35-20.05,38.35-20.05l.33.02,81.32-.05c.07.63.1,1.27.1,1.91v5.43Zm0,9.01v23.47l-89.3.02s-14.37.07-26.4-11.74c12.03-11.81,26.4-11.74,26.4-11.74l89.3-.03Zm-.09,39.83h-81.32s-.33.01-.33.01c0,0-23.49,2.59-38.35-20.05-.34-.52-.67-1.04-1-1.59l.08-.11c14.3,14.53,31.75,14.42,31.74,14.42l89.28-.02v5.47c0,.63-.03,1.25-.09,1.87Zm-13.09,16.6h-64.16s-.05.01-.05.01c0,0-21.98.84-38.1-15.93-3.73-3.88-7.13-8.72-9.87-14.74,16.34,24.73,41.67,23.32,44.08,23.13l77.81-.04c-1.54,2.17-3.55,4.01-5.92,5.39l-3.78,2.18Zm-115.2-19.95c2.45,4.16,5.21,7.72,8.12,10.78,17.64,18.51,41.61,18.25,43.01,18.22l48.43-.02-25.96,14.99c-5.82,3.36-12.99,3.36-18.81,0-12.16-7.02-33.22-19.18-45.38-26.2-5.82-3.36-9.41-9.57-9.41-16.29v-1.48Z"/>
  </g>
</svg>